<?xml version="1.0" standalone="no"?>
<!DOCTYPE svg PUBLIC "-//W3C//DTD SVG 20010904//EN"
 "http://www.w3.org/TR/2001/REC-SVG-20010904/DTD/svg10.dtd">
<svg version="1.0" xmlns="http://www.w3.org/2000/svg"
 width="512.000000pt" height="512.000000pt" viewBox="0 0 512.000000 512.000000"
 preserveAspectRatio="xMidYMid meet">

<g transform="translate(0.000000,512.000000) scale(0.100000,-0.100000)"
fill="#000000" stroke="none">
<path d="M1528 4166 c-25 -7 -57 -20 -70 -28 -12 -9 -176 -143 -363 -297
l-340 -280 -62 -1 -63 0 0 50 c0 37 -5 55 -20 70 -19 19 -33 20 -298 20 -258
0 -280 -1 -295 -18 -15 -17 -17 -70 -17 -554 0 -531 0 -535 21 -554 20 -18 40
-19 296 -19 l275 0 19 24 c13 16 19 39 19 73 l0 51 38 -6 c20 -4 172 -7 337
-8 248 -1 306 1 336 14 51 21 793 688 822 737 16 30 28 40 47 40 14 0 192 -19
397 -41 243 -27 387 -39 417 -35 65 10 133 60 169 124 70 125 12 293 -119 342
-24 10 -227 52 -1139 238 -364 75 -351 73 -407 58z m800 -261 c387 -80 712
-151 723 -159 54 -38 68 -121 30 -174 -42 -59 -43 -59 -483 -12 l-400 44 -20
46 c-23 55 -69 104 -123 133 -59 31 -156 30 -217 -3 -26 -14 -168 -135 -317
-269 -220 -198 -271 -248 -271 -269 0 -33 27 -62 56 -62 25 0 62 31 377 315
98 88 193 168 212 179 48 25 98 15 142 -29 28 -28 33 -40 33 -80 0 -25 -4 -55
-10 -65 -10 -18 -729 -667 -758 -684 -16 -9 -573 -9 -634 1 l-38 6 0 308 0
309 78 0 c42 1 86 6 98 13 12 7 177 140 368 297 190 157 361 290 379 297 17 6
41 9 52 7 11 -2 336 -70 723 -149z"/>
<path d="M2451 3249 c-76 -13 -183 -52 -249 -91 -73 -42 -198 -167 -240 -240
-76 -129 -112 -298 -93 -439 22 -167 83 -291 201 -409 118 -118 242 -179 409
-201 141 -19 310 17 439 93 72 42 197 167 240 240 156 264 123 594 -82 825
-152 171 -401 259 -625 222z m151 -176 c12 -11 18 -30 18 -58 0 -38 3 -44 26
-49 74 -19 145 -98 164 -183 10 -41 9 -50 -8 -72 -38 -52 -94 -32 -107 37 -8
41 -24 67 -54 88 -21 15 -21 15 -21 -103 l0 -118 44 -18 c131 -54 187 -204
120 -326 -29 -54 -88 -104 -137 -117 -24 -5 -27 -11 -27 -47 0 -47 -22 -77
-58 -77 -40 0 -62 27 -62 75 0 38 -3 44 -26 49 -74 19 -145 98 -164 183 -10
41 -9 50 8 72 38 52 94 32 107 -37 8 -41 24 -67 54 -88 21 -15 21 -15 21 103
l0 118 -44 18 c-105 43 -169 158 -146 263 19 82 91 161 164 180 23 5 26 11 26
47 0 24 7 48 17 59 20 22 61 23 85 1z"/>
<path d="M2462 2820 c-48 -47 -50 -110 -5 -155 14 -14 30 -25 34 -25 5 0 9 47
9 105 0 58 -2 105 -4 105 -3 0 -18 -13 -34 -30z"/>
<path d="M2620 2375 l0 -105 23 15 c37 24 53 63 49 121 -2 21 -47 74 -63 74
-5 0 -9 -47 -9 -105z"/>
<path d="M4533 2560 c-30 -12 -43 -41 -43 -95 l0 -47 -42 6 c-24 3 -177 6
-340 7 -296 2 -298 2 -342 -22 -64 -34 -786 -687 -811 -732 -12 -24 -27 -37
-40 -37 -11 0 -190 18 -397 41 -244 27 -393 39 -422 35 -65 -10 -133 -60 -169
-124 -70 -126 -10 -297 121 -343 62 -21 1441 -301 1488 -301 34 -1 67 7 95 21
24 11 199 149 389 306 l345 285 63 0 62 0 0 -50 c0 -37 5 -55 20 -70 19 -19
33 -20 298 -20 258 0 280 1 295 18 15 17 17 70 17 554 0 531 0 535 -21 554
-19 18 -41 19 -283 21 -143 1 -271 -2 -283 -7z m-105 -256 l62 -6 0 -309 0
-309 -77 0 c-43 -1 -87 -6 -99 -13 -12 -7 -177 -140 -367 -297 -191 -157 -362
-290 -380 -297 -29 -10 -83 -1 -437 72 -223 46 -548 113 -722 149 -175 36
-328 72 -341 81 -77 50 -63 180 23 215 27 11 88 7 432 -30 l400 -44 20 -45
c52 -124 185 -187 307 -146 43 14 96 57 336 272 234 209 285 259 285 281 0 32
-26 62 -56 62 -26 0 -35 -7 -342 -284 -123 -111 -239 -207 -257 -215 -80 -32
-165 28 -165 115 0 25 4 53 10 63 16 30 739 675 769 686 29 10 485 10 599 -1z"/>
</g>
</svg>
